<?xml version="1.0" encoding="UTF-8"?>
<svg xmlns="http://www.w3.org/2000/svg" xmlns:xlink="http://www.w3.org/1999/xlink" width="27px" height="50px" viewBox="0 0 27 50" version="1.1">
<g id="surface1">
<path style=" stroke:none;fill-rule:nonzero;fill:rgb(88.235294%,12.156863%,12.941176%);fill-opacity:1;" d="M 25.863281 39.425781 L 25.671875 39.425781 L 25.671875 39.320312 L 26.183594 39.320312 L 26.183594 39.425781 L 25.996094 39.425781 L 25.996094 39.953125 L 25.863281 39.953125 Z M 26.878906 39.453125 L 26.875 39.453125 L 26.6875 39.953125 L 26.601562 39.953125 L 26.417969 39.453125 L 26.414062 39.453125 L 26.414062 39.953125 L 26.289062 39.953125 L 26.289062 39.320312 L 26.472656 39.320312 L 26.644531 39.769531 L 26.816406 39.320312 L 27 39.320312 L 27 39.953125 L 26.878906 39.953125 Z M 26.878906 39.453125 "/>
<path style=" stroke:none;fill-rule:nonzero;fill:rgb(4.313725%,43.529412%,71.372549%);fill-opacity:1;" d="M 8.925781 26.519531 C 8.925781 26.519531 7.609375 27.285156 9.863281 27.539062 C 12.59375 27.851562 13.988281 27.804688 16.996094 27.238281 C 16.996094 27.238281 17.785156 27.734375 18.890625 28.160156 C 12.148438 31.039062 3.628906 27.996094 8.925781 26.519531 M 8.101562 22.765625 C 8.101562 22.765625 6.625 23.855469 8.882812 24.085938 C 11.796875 24.386719 14.097656 24.410156 18.082031 23.648438 C 18.082031 23.648438 18.632812 24.203125 19.5 24.507812 C 11.347656 26.878906 2.269531 24.695312 8.101562 22.765625 "/>
<path style=" stroke:none;fill-rule:nonzero;fill:rgb(88.235294%,12.156863%,12.941176%);fill-opacity:1;" d="M 15.046875 16.398438 C 16.710938 18.300781 14.613281 20.015625 14.613281 20.015625 C 14.613281 20.015625 18.832031 17.847656 16.894531 15.132812 C 15.085938 12.601562 13.695312 11.34375 21.207031 7.003906 C 21.207031 7.003906 9.417969 9.9375 15.046875 16.398438 "/>
<path style=" stroke:none;fill-rule:nonzero;fill:rgb(4.313725%,43.529412%,71.372549%);fill-opacity:1;" d="M 23.964844 29.296875 C 23.964844 29.296875 24.941406 30.097656 22.894531 30.714844 C 19 31.890625 6.695312 32.242188 3.277344 30.761719 C 2.046875 30.230469 4.351562 29.492188 5.078125 29.335938 C 5.832031 29.171875 6.265625 29.203125 6.265625 29.203125 C 4.898438 28.246094 -2.570312 31.085938 2.472656 31.898438 C 16.21875 34.117188 27.53125 30.898438 23.964844 29.296875 M 9.558594 18.875 C 9.558594 18.875 3.300781 20.355469 7.34375 20.894531 C 9.050781 21.121094 12.453125 21.070312 15.625 20.804688 C 18.214844 20.589844 20.816406 20.125 20.816406 20.125 C 20.816406 20.125 19.902344 20.515625 19.242188 20.964844 C 12.882812 22.628906 0.601562 21.855469 4.136719 20.152344 C 7.128906 18.710938 9.558594 18.875 9.558594 18.875 M 20.789062 25.125 C 27.253906 21.78125 24.265625 18.570312 22.179688 19.003906 C 21.667969 19.109375 21.441406 19.199219 21.441406 19.199219 C 21.441406 19.199219 21.628906 18.90625 21.992188 18.777344 C 26.117188 17.332031 29.289062 23.035156 20.660156 25.292969 C 20.660156 25.292969 20.761719 25.207031 20.789062 25.125 "/>
<path style=" stroke:none;fill-rule:nonzero;fill:rgb(88.235294%,12.156863%,12.941176%);fill-opacity:1;" d="M 16.894531 0 C 16.894531 0 20.472656 3.5625 13.5 9.046875 C 7.90625 13.441406 12.222656 15.949219 13.496094 18.8125 C 10.234375 15.882812 7.835938 13.300781 9.445312 10.898438 C 11.804688 7.371094 18.335938 5.660156 16.894531 0 "/>
<path style=" stroke:none;fill-rule:nonzero;fill:rgb(4.313725%,43.529412%,71.372549%);fill-opacity:1;" d="M 10.195312 34.183594 C 16.398438 34.582031 25.921875 33.964844 26.148438 31.042969 C 26.148438 31.042969 25.714844 32.152344 21.023438 33.03125 C 15.726562 34.023438 9.199219 33.90625 5.324219 33.273438 C 5.324219 33.273438 6.117188 33.925781 10.195312 34.183594 "/>
<path style=" stroke:none;fill-rule:nonzero;fill:rgb(88.235294%,12.156863%,12.941176%);fill-opacity:1;" d="M 9.179688 45.351562 C 8.59375 45.855469 7.976562 46.140625 7.421875 46.140625 C 6.628906 46.140625 6.199219 45.667969 6.199219 44.910156 C 6.199219 44.089844 6.660156 43.488281 8.496094 43.488281 L 9.179688 43.488281 L 9.179688 45.351562 M 10.792969 47.164062 L 10.792969 41.550781 C 10.792969 40.117188 9.972656 39.171875 7.992188 39.171875 C 6.832031 39.171875 5.820312 39.453125 4.996094 39.816406 L 5.234375 40.8125 C 5.882812 40.574219 6.722656 40.355469 7.546875 40.355469 C 8.6875 40.355469 9.179688 40.8125 9.179688 41.757812 L 9.179688 42.464844 L 8.609375 42.464844 C 5.835938 42.464844 4.585938 43.539062 4.585938 45.144531 C 4.585938 46.535156 5.410156 47.324219 6.960938 47.324219 C 7.960938 47.324219 8.703125 46.914062 9.398438 46.3125 L 9.527344 47.164062 Z M 16.179688 47.164062 L 14.167969 47.164062 L 11.742188 39.3125 L 13.503906 39.3125 L 15.007812 44.136719 L 15.339844 45.589844 C 16.101562 43.488281 16.640625 41.363281 16.910156 39.3125 L 18.621094 39.3125 C 18.160156 41.898438 17.335938 44.738281 16.179688 47.164062 M 23.90625 45.351562 C 23.320312 45.855469 22.703125 46.140625 22.148438 46.140625 C 21.355469 46.140625 20.925781 45.667969 20.925781 44.910156 C 20.925781 44.089844 21.386719 43.488281 23.226562 43.488281 L 23.90625 43.488281 L 23.90625 45.351562 M 25.519531 47.164062 L 25.519531 41.550781 C 25.519531 40.117188 24.699219 39.171875 22.71875 39.171875 C 21.5625 39.171875 20.546875 39.453125 19.726562 39.816406 L 19.960938 40.8125 C 20.609375 40.574219 21.453125 40.355469 22.273438 40.355469 C 23.414062 40.355469 23.90625 40.8125 23.90625 41.757812 L 23.90625 42.464844 L 23.335938 42.464844 C 20.5625 42.464844 19.3125 43.539062 19.3125 45.144531 C 19.3125 46.535156 20.136719 47.324219 21.6875 47.324219 C 22.6875 47.324219 23.429688 46.914062 24.128906 46.3125 L 24.253906 47.164062 Z M 2.816406 48.5 C 2.355469 49.167969 1.609375 49.695312 0.796875 49.996094 L 0 49.0625 C 0.621094 48.746094 1.152344 48.234375 1.398438 47.757812 C 1.609375 47.335938 1.699219 46.789062 1.699219 45.484375 L 1.699219 36.519531 L 3.414062 36.519531 L 3.414062 45.363281 C 3.414062 47.105469 3.273438 47.8125 2.816406 48.5 "/>
</g>
</svg>
