<?xml version="1.0" encoding="UTF-8"?>
<svg xmlns="http://www.w3.org/2000/svg" xmlns:xlink="http://www.w3.org/1999/xlink" width="81px" height="150px" viewBox="0 0 81 150" version="1.1">
<g id="surface1">
<path style=" stroke:none;fill-rule:nonzero;fill:rgb(88.235294%,12.156863%,12.941176%);fill-opacity:1;" d="M 77.585938 118.277344 L 77.019531 118.277344 L 77.019531 117.964844 L 78.546875 117.964844 L 78.546875 118.277344 L 77.984375 118.277344 L 77.984375 119.855469 L 77.585938 119.855469 Z M 80.632812 118.359375 L 80.625 118.359375 L 80.066406 119.855469 L 79.808594 119.855469 L 79.25 118.359375 L 79.242188 118.359375 L 79.242188 119.855469 L 78.867188 119.855469 L 78.867188 117.964844 L 79.417969 117.964844 L 79.933594 119.304688 L 80.449219 117.964844 L 81 117.964844 L 81 119.855469 L 80.632812 119.855469 Z M 80.632812 118.359375 "/>
<path style=" stroke:none;fill-rule:nonzero;fill:rgb(4.313725%,43.529412%,71.372549%);fill-opacity:1;" d="M 26.78125 79.5625 C 26.78125 79.5625 22.832031 81.851562 29.589844 82.621094 C 37.777344 83.554688 41.964844 83.417969 50.988281 81.71875 C 50.988281 81.71875 53.359375 83.199219 56.671875 84.484375 C 36.445312 93.113281 10.890625 83.984375 26.78125 79.5625 M 24.308594 68.300781 C 24.308594 68.300781 19.878906 71.5625 26.644531 72.257812 C 35.390625 73.160156 42.296875 73.230469 54.25 70.941406 C 54.25 70.941406 55.902344 72.609375 58.503906 73.519531 C 34.046875 80.640625 6.804688 74.082031 24.308594 68.300781 "/>
<path style=" stroke:none;fill-rule:nonzero;fill:rgb(88.235294%,12.156863%,12.941176%);fill-opacity:1;" d="M 45.144531 49.191406 C 50.132812 54.90625 43.835938 60.046875 43.835938 60.046875 C 43.835938 60.046875 56.492188 53.542969 50.679688 45.394531 C 45.253906 37.800781 41.089844 34.027344 63.625 21.011719 C 63.625 21.011719 28.25 29.808594 45.144531 49.191406 "/>
<path style=" stroke:none;fill-rule:nonzero;fill:rgb(4.313725%,43.529412%,71.372549%);fill-opacity:1;" d="M 71.898438 87.894531 C 71.898438 87.894531 74.820312 90.292969 68.683594 92.144531 C 57.003906 95.667969 20.082031 96.730469 9.828125 92.285156 C 6.140625 90.691406 13.054688 88.472656 15.230469 88.007812 C 17.5 87.519531 18.792969 87.609375 18.792969 87.609375 C 14.695312 84.734375 -7.707031 93.257812 7.414062 95.695312 C 48.660156 102.355469 82.597656 92.699219 71.898438 87.894531 M 28.679688 56.628906 C 28.679688 56.628906 9.898438 61.070312 22.027344 62.683594 C 27.148438 63.363281 37.359375 63.210938 46.871094 62.417969 C 54.640625 61.765625 62.449219 60.375 62.449219 60.375 C 62.449219 60.375 59.707031 61.546875 57.722656 62.894531 C 38.652344 67.886719 1.808594 65.5625 12.414062 60.457031 C 21.386719 56.136719 28.679688 56.628906 28.679688 56.628906 M 62.367188 75.378906 C 81.757812 65.347656 72.792969 55.710938 66.535156 57.007812 C 65.003906 57.324219 64.320312 57.601562 64.320312 57.601562 C 64.320312 57.601562 64.886719 56.714844 65.976562 56.328125 C 78.351562 51.996094 87.871094 69.105469 61.980469 75.882812 C 61.980469 75.882812 62.28125 75.617188 62.367188 75.378906 "/>
<path style=" stroke:none;fill-rule:nonzero;fill:rgb(88.235294%,12.156863%,12.941176%);fill-opacity:1;" d="M 50.679688 0 C 50.679688 0 61.417969 10.691406 40.5 27.136719 C 23.722656 40.328125 36.671875 47.847656 40.492188 56.441406 C 30.699219 47.644531 23.511719 39.902344 28.332031 32.695312 C 35.410156 22.113281 55.011719 16.984375 50.679688 0 "/>
<path style=" stroke:none;fill-rule:nonzero;fill:rgb(4.313725%,43.529412%,71.372549%);fill-opacity:1;" d="M 30.582031 102.554688 C 49.191406 103.742188 77.769531 101.898438 78.445312 93.132812 C 78.445312 93.132812 77.144531 96.453125 63.066406 99.09375 C 47.183594 102.070312 27.59375 101.722656 15.976562 99.816406 C 15.976562 99.816406 18.351562 101.773438 30.582031 102.554688 "/>
<path style=" stroke:none;fill-rule:nonzero;fill:rgb(88.235294%,12.156863%,12.941176%);fill-opacity:1;" d="M 27.535156 136.054688 C 25.777344 137.570312 23.925781 138.421875 22.261719 138.421875 C 19.886719 138.421875 18.601562 137.003906 18.601562 134.730469 C 18.601562 132.269531 19.976562 130.46875 25.492188 130.46875 L 27.535156 130.46875 L 27.535156 136.054688 M 32.378906 141.496094 L 32.378906 124.652344 C 32.378906 120.347656 29.914062 117.511719 23.972656 117.511719 C 20.5 117.511719 17.460938 118.363281 14.992188 119.449219 L 15.703125 122.433594 C 17.652344 121.722656 20.167969 121.0625 22.636719 121.0625 C 26.0625 121.0625 27.535156 122.433594 27.535156 125.269531 L 27.535156 127.398438 L 25.828125 127.398438 C 17.507812 127.398438 13.753906 130.613281 13.753906 135.4375 C 13.753906 139.601562 16.226562 141.96875 20.882812 141.96875 C 23.878906 141.96875 26.113281 140.738281 28.199219 138.941406 L 28.578125 141.496094 Z M 48.542969 141.496094 L 42.503906 141.496094 L 35.230469 117.9375 L 40.507812 117.9375 L 45.019531 132.410156 L 46.023438 136.765625 C 48.304688 130.46875 49.917969 124.085938 50.726562 117.9375 L 55.859375 117.9375 C 54.484375 125.695312 52.007812 134.210938 48.542969 141.496094 M 71.722656 136.054688 C 69.960938 137.570312 68.105469 138.421875 66.441406 138.421875 C 64.070312 138.421875 62.78125 137.003906 62.78125 134.730469 C 62.78125 132.269531 64.164062 130.46875 69.675781 130.46875 L 71.722656 130.46875 L 71.722656 136.054688 M 76.5625 141.496094 L 76.5625 124.652344 C 76.5625 120.347656 74.09375 117.511719 68.15625 117.511719 C 64.683594 117.511719 61.644531 118.363281 59.175781 119.449219 L 59.886719 122.433594 C 61.832031 121.722656 64.355469 121.0625 66.824219 121.0625 C 70.246094 121.0625 71.722656 122.433594 71.722656 125.269531 L 71.722656 127.398438 L 70.007812 127.398438 C 61.6875 127.398438 57.9375 130.613281 57.9375 135.4375 C 57.9375 139.601562 60.410156 141.96875 65.0625 141.96875 C 68.058594 141.96875 70.292969 140.738281 72.382812 138.941406 L 72.765625 141.496094 Z M 8.445312 145.496094 C 7.0625 147.503906 4.832031 149.089844 2.390625 149.992188 L 0 147.1875 C 1.859375 146.238281 3.453125 144.707031 4.195312 143.277344 C 4.832031 142.007812 5.097656 140.371094 5.097656 136.457031 L 5.097656 109.558594 L 10.246094 109.558594 L 10.246094 136.085938 C 10.246094 141.320312 9.824219 143.433594 8.445312 145.496094 "/>
</g>
</svg>
