<?xml version="1.0" encoding="UTF-8"?>
<svg xmlns="http://www.w3.org/2000/svg" xmlns:xlink="http://www.w3.org/1999/xlink" width="200px" height="372px" viewBox="0 0 200 372" version="1.1">
<g id="surface1">
<path style=" stroke:none;fill-rule:nonzero;fill:rgb(88.235294%,12.156863%,12.941176%);fill-opacity:1;" d="M 191.574219 293.332031 L 190.175781 293.332031 L 190.175781 292.550781 L 193.945312 292.550781 L 193.945312 293.332031 L 192.554688 293.332031 L 192.554688 297.246094 L 191.574219 297.246094 Z M 199.097656 293.535156 L 199.078125 293.535156 L 197.691406 297.246094 L 197.054688 297.246094 L 195.675781 293.535156 L 195.65625 293.535156 L 195.65625 297.246094 L 194.734375 297.246094 L 194.734375 292.550781 L 196.089844 292.550781 L 197.371094 295.875 L 198.644531 292.550781 L 200 292.550781 L 200 297.246094 L 199.097656 297.246094 Z M 199.097656 293.535156 "/>
<path style=" stroke:none;fill-rule:nonzero;fill:rgb(4.313725%,43.529412%,71.372549%);fill-opacity:1;" d="M 66.125 197.316406 C 66.125 197.316406 56.375 202.988281 73.0625 204.902344 C 93.28125 207.210938 103.613281 206.878906 125.894531 202.664062 C 125.894531 202.664062 131.753906 206.335938 139.933594 209.519531 C 89.988281 230.925781 26.894531 208.277344 66.125 197.316406 M 60.019531 169.382812 C 60.019531 169.382812 49.085938 177.476562 65.785156 179.203125 C 87.386719 181.433594 104.441406 181.613281 133.953125 175.933594 C 133.953125 175.933594 138.035156 180.070312 144.457031 182.332031 C 84.066406 199.992188 16.804688 183.726562 60.019531 169.382812 "/>
<path style=" stroke:none;fill-rule:nonzero;fill:rgb(88.235294%,12.156863%,12.941176%);fill-opacity:1;" d="M 111.472656 121.996094 C 123.78125 136.167969 108.238281 148.917969 108.238281 148.917969 C 108.238281 148.917969 139.488281 132.785156 125.136719 112.582031 C 111.734375 93.746094 101.457031 84.386719 157.101562 52.113281 C 157.101562 52.113281 69.753906 73.925781 111.472656 121.996094 "/>
<path style=" stroke:none;fill-rule:nonzero;fill:rgb(4.313725%,43.529412%,71.372549%);fill-opacity:1;" d="M 177.53125 217.976562 C 177.53125 217.976562 184.746094 223.921875 169.585938 228.519531 C 140.753906 237.253906 49.589844 239.894531 24.269531 228.871094 C 15.164062 224.910156 32.234375 219.414062 37.605469 218.261719 C 43.207031 217.046875 46.40625 217.269531 46.40625 217.269531 C 36.285156 210.140625 -19.03125 231.277344 18.308594 237.328125 C 120.144531 253.84375 203.949219 229.894531 177.53125 217.976562 M 70.8125 140.441406 C 70.8125 140.441406 24.441406 151.453125 54.390625 155.453125 C 67.035156 157.144531 92.246094 156.761719 115.730469 154.792969 C 134.917969 153.175781 154.191406 149.734375 154.191406 149.734375 C 154.191406 149.734375 147.421875 152.632812 142.527344 155.976562 C 95.4375 168.359375 4.46875 162.597656 30.65625 149.929688 C 52.804688 139.222656 70.8125 140.441406 70.8125 140.441406 M 153.996094 186.9375 C 201.867188 162.0625 179.734375 138.160156 164.285156 141.378906 C 160.5 142.167969 158.8125 142.847656 158.8125 142.847656 C 158.8125 142.847656 160.214844 140.648438 162.902344 139.695312 C 193.464844 128.949219 216.964844 171.382812 153.035156 188.191406 C 153.035156 188.191406 153.777344 187.527344 153.996094 186.9375 "/>
<path style=" stroke:none;fill-rule:nonzero;fill:rgb(88.235294%,12.156863%,12.941176%);fill-opacity:1;" d="M 125.136719 0 C 125.136719 0 151.648438 26.519531 99.996094 67.300781 C 58.574219 100.011719 90.550781 118.660156 99.976562 139.972656 C 75.796875 118.160156 58.054688 98.953125 69.957031 81.082031 C 87.429688 54.84375 135.832031 42.125 125.136719 0 "/>
<path style=" stroke:none;fill-rule:nonzero;fill:rgb(4.313725%,43.529412%,71.372549%);fill-opacity:1;" d="M 75.515625 254.339844 C 121.464844 257.28125 192.023438 252.707031 193.695312 230.964844 C 193.695312 230.964844 190.480469 239.207031 155.722656 245.753906 C 116.503906 253.136719 68.132812 252.273438 39.445312 247.542969 C 39.445312 247.542969 45.316406 252.402344 75.515625 254.339844 "/>
<path style=" stroke:none;fill-rule:nonzero;fill:rgb(88.235294%,12.156863%,12.941176%);fill-opacity:1;" d="M 67.988281 337.414062 C 63.652344 341.175781 59.074219 343.285156 54.964844 343.285156 C 49.101562 343.285156 45.933594 339.769531 45.933594 334.128906 C 45.933594 328.027344 49.328125 323.566406 62.945312 323.566406 L 67.988281 323.566406 L 67.988281 337.414062 M 79.949219 350.910156 L 79.949219 309.136719 C 79.949219 298.464844 73.863281 291.425781 59.1875 291.425781 C 50.621094 291.425781 43.117188 293.542969 37.019531 296.238281 L 38.777344 303.632812 C 43.582031 301.871094 49.796875 300.230469 55.894531 300.230469 C 64.347656 300.230469 67.988281 303.632812 67.988281 310.667969 L 67.988281 315.949219 L 63.769531 315.949219 C 43.230469 315.949219 33.964844 323.921875 33.964844 335.886719 C 33.964844 346.214844 40.070312 352.085938 51.566406 352.085938 C 58.957031 352.085938 64.472656 349.035156 69.628906 344.570312 L 70.5625 350.910156 Z M 119.863281 350.910156 L 104.945312 350.910156 L 86.992188 292.484375 L 100.019531 292.484375 L 111.160156 328.378906 L 113.636719 339.175781 C 119.269531 323.566406 123.257812 307.730469 125.253906 292.484375 L 137.925781 292.484375 C 134.527344 311.722656 128.417969 332.839844 119.863281 350.910156 M 177.089844 337.414062 C 172.746094 341.175781 168.160156 343.285156 164.050781 343.285156 C 158.199219 343.285156 155.019531 339.769531 155.019531 334.128906 C 155.019531 328.027344 158.425781 323.566406 172.042969 323.566406 L 177.089844 323.566406 L 177.089844 337.414062 M 189.046875 350.910156 L 189.046875 309.136719 C 189.046875 298.464844 182.945312 291.425781 168.289062 291.425781 C 159.714844 291.425781 152.207031 293.542969 146.113281 296.238281 L 147.871094 303.632812 C 152.675781 301.871094 158.902344 300.230469 165 300.230469 C 173.445312 300.230469 177.089844 303.632812 177.089844 310.667969 L 177.089844 315.949219 L 172.863281 315.949219 C 152.316406 315.949219 143.058594 323.921875 143.058594 335.886719 C 143.058594 346.214844 149.160156 352.085938 160.652344 352.085938 C 168.042969 352.085938 173.558594 349.035156 178.722656 344.570312 L 179.664062 350.910156 Z M 20.851562 360.832031 C 17.441406 365.808594 11.933594 369.746094 5.90625 371.976562 L 0 365.027344 C 4.589844 362.671875 8.523438 358.871094 10.355469 355.328125 C 11.933594 352.175781 12.589844 348.117188 12.589844 338.410156 L 12.589844 271.707031 L 25.296875 271.707031 L 25.296875 337.496094 C 25.296875 350.472656 24.257812 355.71875 20.851562 360.832031 "/>
</g>
</svg>
