<?xml version="1.0" encoding="UTF-8"?>
<svg xmlns="http://www.w3.org/2000/svg" xmlns:xlink="http://www.w3.org/1999/xlink" width="300px" height="558px" viewBox="0 0 300 558" version="1.1">
<g id="surface1">
<path style=" stroke:none;fill-rule:nonzero;fill:rgb(88.235294%,12.156863%,12.941176%);fill-opacity:1;" d="M 287.363281 439.996094 L 285.261719 439.996094 L 285.261719 438.824219 L 290.917969 438.824219 L 290.917969 440 L 288.832031 440 L 288.832031 445.867188 L 287.363281 445.867188 Z M 298.648438 440.304688 L 298.617188 440.304688 L 296.535156 445.867188 L 295.582031 445.867188 L 293.511719 440.304688 L 293.484375 440.304688 L 293.484375 445.867188 L 292.101562 445.867188 L 292.101562 438.824219 L 294.136719 438.824219 L 296.058594 443.8125 L 297.96875 438.824219 L 300 438.824219 L 300 445.867188 L 298.648438 445.867188 Z M 298.648438 440.304688 "/>
<path style=" stroke:none;fill-rule:nonzero;fill:rgb(4.313725%,43.529412%,71.372549%);fill-opacity:1;" d="M 99.1875 295.972656 C 99.1875 295.972656 84.5625 304.480469 109.59375 307.355469 C 139.921875 310.816406 155.421875 310.320312 188.84375 303.996094 C 188.84375 303.996094 197.628906 309.503906 209.902344 314.277344 C 134.980469 346.386719 40.339844 312.417969 99.1875 295.972656 M 90.03125 254.074219 C 90.03125 254.074219 73.628906 266.214844 98.679688 268.804688 C 131.078125 272.148438 156.660156 272.421875 200.929688 263.898438 C 200.929688 263.898438 207.054688 270.105469 216.683594 273.5 C 126.097656 299.988281 25.207031 275.589844 90.03125 254.074219 "/>
<path style=" stroke:none;fill-rule:nonzero;fill:rgb(88.235294%,12.156863%,12.941176%);fill-opacity:1;" d="M 167.210938 182.996094 C 185.671875 204.25 162.359375 223.375 162.359375 223.375 C 162.359375 223.375 209.234375 199.175781 187.707031 168.875 C 167.601562 140.617188 152.183594 126.578125 235.652344 78.167969 C 235.652344 78.167969 104.632812 110.890625 167.210938 182.996094 "/>
<path style=" stroke:none;fill-rule:nonzero;fill:rgb(4.313725%,43.529412%,71.372549%);fill-opacity:1;" d="M 266.296875 326.964844 C 266.296875 326.964844 277.121094 335.882812 254.378906 342.78125 C 211.132812 355.882812 74.386719 359.839844 36.402344 343.304688 C 22.746094 337.363281 48.351562 329.121094 56.410156 327.390625 C 64.808594 325.570312 69.609375 325.90625 69.609375 325.90625 C 54.425781 315.210938 -28.546875 346.914062 27.464844 355.992188 C 180.21875 380.765625 305.921875 344.839844 266.296875 326.964844 M 106.21875 210.660156 C 106.21875 210.660156 36.660156 227.179688 81.585938 233.179688 C 100.554688 235.71875 138.371094 235.144531 173.59375 232.191406 C 202.378906 229.765625 231.285156 224.601562 231.285156 224.601562 C 231.285156 224.601562 221.132812 228.949219 213.789062 233.964844 C 143.15625 252.539062 6.703125 243.898438 45.984375 224.894531 C 79.207031 208.835938 106.21875 210.660156 106.21875 210.660156 M 230.996094 280.40625 C 302.800781 243.09375 269.601562 207.238281 246.429688 212.066406 C 240.75 213.25 238.21875 214.273438 238.21875 214.273438 C 238.21875 214.273438 240.324219 210.972656 244.351562 209.542969 C 290.195312 193.425781 325.449219 257.074219 229.554688 282.285156 C 229.554688 282.285156 230.664062 281.292969 230.996094 280.40625 "/>
<path style=" stroke:none;fill-rule:nonzero;fill:rgb(88.235294%,12.156863%,12.941176%);fill-opacity:1;" d="M 187.707031 0 C 187.707031 0 227.472656 39.777344 149.992188 100.949219 C 87.859375 150.015625 135.824219 177.992188 149.964844 209.960938 C 113.695312 177.238281 87.082031 148.429688 104.9375 121.621094 C 131.144531 82.265625 203.75 63.1875 187.707031 0 "/>
<path style=" stroke:none;fill-rule:nonzero;fill:rgb(4.313725%,43.529412%,71.372549%);fill-opacity:1;" d="M 113.273438 381.511719 C 182.195312 385.921875 288.035156 379.0625 290.542969 346.449219 C 290.542969 346.449219 285.722656 358.8125 233.582031 368.632812 C 174.753906 379.703125 102.199219 378.410156 59.167969 371.316406 C 59.167969 371.316406 67.976562 378.605469 113.273438 381.511719 "/>
<path style=" stroke:none;fill-rule:nonzero;fill:rgb(88.235294%,12.156863%,12.941176%);fill-opacity:1;" d="M 101.980469 506.121094 C 95.476562 511.761719 88.609375 514.929688 82.449219 514.929688 C 73.652344 514.929688 68.902344 509.652344 68.902344 501.195312 C 68.902344 492.042969 73.992188 485.351562 94.417969 485.351562 L 101.980469 485.351562 L 101.980469 506.121094 M 119.921875 526.363281 L 119.921875 463.707031 C 119.921875 447.699219 110.792969 437.140625 88.78125 437.140625 C 75.929688 437.140625 64.675781 440.3125 55.527344 444.359375 L 58.167969 455.449219 C 65.371094 452.804688 74.695312 450.34375 83.84375 450.34375 C 96.523438 450.34375 101.980469 455.449219 101.980469 466.003906 L 101.980469 473.921875 L 95.652344 473.921875 C 64.84375 473.921875 50.949219 485.882812 50.949219 503.832031 C 50.949219 519.324219 60.105469 528.128906 77.347656 528.128906 C 88.433594 528.128906 96.707031 523.550781 104.441406 516.855469 L 105.84375 526.367188 L 119.921875 526.367188 Z M 179.792969 526.363281 L 157.417969 526.363281 L 130.488281 438.726562 L 150.03125 438.726562 L 166.738281 492.570312 L 170.453125 508.765625 C 178.90625 485.351562 184.886719 461.597656 187.878906 438.726562 L 206.886719 438.726562 C 201.792969 467.585938 192.628906 499.261719 179.796875 526.363281 M 265.632812 506.121094 C 259.117188 511.761719 252.238281 514.929688 246.078125 514.929688 C 237.296875 514.929688 232.53125 509.652344 232.53125 501.195312 C 232.53125 492.042969 237.636719 485.351562 258.0625 485.351562 L 265.632812 485.351562 L 265.632812 506.121094 M 283.570312 526.363281 L 283.570312 463.707031 C 283.570312 447.699219 274.417969 437.140625 252.433594 437.140625 C 239.574219 437.140625 228.3125 440.3125 219.167969 444.359375 L 221.804688 455.449219 C 229.011719 452.804688 238.355469 450.34375 247.5 450.34375 C 260.167969 450.34375 265.632812 455.449219 265.632812 466.003906 L 265.632812 473.921875 L 259.292969 473.921875 C 228.476562 473.921875 214.585938 485.882812 214.585938 503.832031 C 214.585938 519.324219 223.738281 528.128906 240.976562 528.128906 C 252.066406 528.128906 260.339844 523.550781 268.085938 516.855469 L 269.496094 526.367188 L 283.570312 526.367188 Z M 31.277344 541.246094 C 26.160156 548.714844 17.902344 554.621094 8.859375 557.964844 L 0 547.542969 C 6.882812 544.007812 12.785156 538.304688 15.53125 532.992188 C 17.902344 528.265625 18.882812 522.175781 18.882812 507.613281 L 18.882812 407.558594 L 37.945312 407.558594 L 37.945312 506.242188 C 37.945312 525.710938 36.386719 533.578125 31.277344 541.246094 "/>
</g>
</svg>
